# xmcd
#
# Track frame offsets:
#	150
#	13977
#	28515
#	45332
#	60969
#	67426
#	86284
#	101492
#	110570
#	120108
#	133845
#
# Disc length: 1924 seconds
#
# Revision: 0
# Processed by: cddbd v1.4PL0 Copyright (c) Steve Scherf et al.
# Submitted via: EasyCDDAExtractor 4.6.9.1
#
DISCID=8a07820b
DTITLE=Various Artist - Instrumentals
DYEAR=1900
DGENRE=Instrumentals
TTITLE0=Σέρβικος- Παπαϊωάννου
TTITLE1=Νυχτερινό παράπονο
TTITLE2=Όταν παίζει το μπουζούκι
TTITLE3=Πεννιές Μπέμπη
TTITLE4=Ταξίμι
TTITLE5=Πρόκληση για μπαγλαμά
TTITLE6=Απτάλικο
TTITLE7=Θα πάω στη ζούγκλα
TTITLE8=Ο χορός του σάκαινα
TTITLE9=Είπες μακρυά θα φύγεις
TTITLE10=Αυτά τα λόγια τα χαμένα
EXTD=
EXTT0=
EXTT1=
EXTT2=
EXTT3=
EXTT4=
EXTT5=
EXTT6=
EXTT7=
EXTT8=
EXTT9=
EXTT10=
PLAYORDER=
